<svg width="315" height="97" viewBox="0 0 315 97" fill="none" xmlns="http://www.w3.org/2000/svg">
<path fill-rule="evenodd" clip-rule="evenodd" d="M117.67 48.5252C117.67 42.6464 114.823 38.0077 109.38 38.0077C103.915 38.0077 100.608 42.6464 100.608 48.4793C100.608 55.3914 104.512 58.8819 110.115 58.8819C112.848 58.8819 114.915 58.2619 116.476 57.3893V52.7965C114.915 53.5773 113.123 54.0595 110.85 54.0595C108.622 54.0595 106.648 53.2787 106.395 50.569H117.624C117.624 50.2704 117.67 49.0763 117.67 48.5252ZM106.326 46.3436C106.326 43.7487 107.911 42.6694 109.357 42.6694C110.758 42.6694 112.251 43.7487 112.251 46.3436H106.326Z" fill="white"/>
<path fill-rule="evenodd" clip-rule="evenodd" d="M91.744 38.0077C89.4935 38.0077 88.0468 39.064 87.2431 39.7989L86.9445 38.3751H81.8925V65.1511L87.6334 63.934L87.6564 57.4352C88.4831 58.0323 89.7002 58.8819 91.721 58.8819C95.8316 58.8819 99.5747 55.5751 99.5747 48.2955C99.5517 41.636 95.7627 38.0077 91.744 38.0077ZM90.3662 53.8299C89.0113 53.8299 88.2075 53.3476 87.6564 52.7506L87.6334 44.2309C88.2305 43.565 89.0572 43.1057 90.3662 43.1057C92.4559 43.1057 93.9026 45.448 93.9026 48.4563C93.9026 51.5335 92.4788 53.8299 90.3662 53.8299Z" fill="white"/>
<path fill-rule="evenodd" clip-rule="evenodd" d="M73.9928 36.6528L79.7568 35.4128V30.7511L73.9928 31.9682V36.6528Z" fill="white"/>
<path d="M79.7568 38.3981H73.9928V58.4915H79.7568V38.3981Z" fill="white"/>
<path fill-rule="evenodd" clip-rule="evenodd" d="M67.8155 40.0975L67.4481 38.3981H62.4879V58.4916H68.2289V44.874C69.5837 43.1057 71.8801 43.4272 72.592 43.6798V38.3981C71.8572 38.1226 69.1704 37.6174 67.8155 40.0975Z" fill="white"/>
<path fill-rule="evenodd" clip-rule="evenodd" d="M56.3335 33.4149L50.7303 34.609L50.7074 53.0032C50.7074 56.4018 53.2564 58.9049 56.655 58.9049C58.5381 58.9049 59.9159 58.5605 60.6737 58.1471V53.4854C59.9389 53.784 56.3106 54.8403 56.3106 51.4416V43.2894H60.6737V38.3981H56.3106L56.3335 33.4149Z" fill="white"/>
<path fill-rule="evenodd" clip-rule="evenodd" d="M40.8099 44.2309C40.8099 43.3353 41.5447 42.9909 42.7618 42.9909C44.5071 42.9909 46.7116 43.519 48.4569 44.4606V39.064C46.5509 38.3062 44.6678 38.0077 42.7618 38.0077C38.1001 38.0077 35 40.4419 35 44.5065C35 50.8445 43.7263 49.8341 43.7263 52.5668C43.7263 53.6232 42.8077 53.9676 41.5218 53.9676C39.6158 53.9676 37.1816 53.1869 35.2526 52.1305V57.5959C37.3883 58.5145 39.5469 58.9049 41.5218 58.9049C46.2983 58.9049 49.5821 56.5396 49.5821 52.4291C49.5592 45.5858 40.8099 46.8029 40.8099 44.2309Z" fill="white"/>
<path d="M191.88 38.896V59H187.764V38.896H191.88ZM194.097 56.508L196.533 54.016C197.541 55.388 199.333 56.256 200.985 56.256C202.301 56.256 203.449 55.808 203.449 54.744C203.449 53.624 202.357 53.484 200.005 53.036C197.625 52.56 194.993 51.944 194.993 48.78C194.993 45.952 197.485 43.992 201.013 43.992C203.617 43.992 205.941 45.056 207.089 46.54L204.849 49.004C203.869 47.744 202.441 47.044 200.901 47.044C199.669 47.044 198.857 47.576 198.857 48.388C198.857 49.34 199.837 49.508 201.657 49.872C204.233 50.404 207.285 50.992 207.285 54.324C207.285 57.404 204.429 59.308 200.901 59.308C198.241 59.308 195.441 58.328 194.097 56.508ZM208.424 56.508L210.86 54.016C211.868 55.388 213.66 56.256 215.312 56.256C216.628 56.256 217.776 55.808 217.776 54.744C217.776 53.624 216.684 53.484 214.332 53.036C211.952 52.56 209.32 51.944 209.32 48.78C209.32 45.952 211.812 43.992 215.34 43.992C217.944 43.992 220.268 45.056 221.416 46.54L219.176 49.004C218.196 47.744 216.768 47.044 215.228 47.044C213.996 47.044 213.184 47.576 213.184 48.388C213.184 49.34 214.164 49.508 215.984 49.872C218.56 50.404 221.612 50.992 221.612 54.324C221.612 57.404 218.756 59.308 215.228 59.308C212.568 59.308 209.768 58.328 208.424 56.508ZM236.976 44.272V59H233.056V57.488C232.244 58.44 230.956 59.308 229.08 59.308C226.028 59.308 224.068 57.208 224.068 54.016V44.272H227.988V53.148C227.988 54.772 228.716 55.836 230.34 55.836C231.712 55.836 233.056 54.828 233.056 52.924V44.272H236.976ZM240.475 42.536V38.896H244.479V42.536H240.475ZM244.451 44.272V59H240.531V44.272H244.451ZM247.968 59V44.272H251.888V45.784C252.7 44.832 254.044 43.992 255.92 43.992C259 43.992 260.876 46.092 260.876 49.284V59H256.956V50.404C256.956 48.752 256.284 47.576 254.604 47.576C253.232 47.576 251.888 48.556 251.888 50.488V59H247.968ZM277.899 57.376C277.899 61.828 274.819 64.292 270.451 64.292C266.895 64.292 264.431 62.836 263.591 59.952L267.259 58.888C267.679 60.344 268.827 61.24 270.507 61.24C272.551 61.24 273.979 60.232 273.979 57.796V56.788C273.223 57.796 271.739 58.58 269.891 58.58C265.859 58.58 263.507 55.304 263.507 51.272C263.507 47.268 265.859 43.992 269.891 43.992C271.711 43.992 273.223 44.776 273.979 45.784V44.272H277.899V57.376ZM274.007 51.104C274.007 48.668 272.691 47.296 270.815 47.296C268.687 47.296 267.483 48.808 267.483 51.272C267.483 53.736 268.687 55.276 270.815 55.276C272.691 55.276 274.007 53.904 274.007 51.496V51.104Z" fill="white"/>
<path d="M140.623 53.4782L140.595 53.4499C140.567 53.4211 140.54 53.3917 140.513 53.3617C140.497 53.3432 140.481 53.3245 140.465 53.3057C140.442 53.2779 140.419 53.2497 140.398 53.2212C140.383 53.2016 140.368 53.1816 140.354 53.1614C140.336 53.1362 140.318 53.1109 140.301 53.0854C140.283 53.0572 140.265 53.0288 140.247 53.0001C140.238 52.984 140.228 52.9674 140.218 52.9507C140.2 52.9196 140.184 52.8885 140.167 52.8571C140.153 52.83 140.14 52.8025 140.127 52.7748C140.091 52.6995 140.059 52.6228 140.032 52.5449C139.992 52.4311 139.961 52.3208 139.938 52.2089C139.933 52.1853 139.929 52.1609 139.924 52.1365C139.918 52.103 139.913 52.0696 139.909 52.0362C139.906 52.0141 139.903 51.9922 139.901 51.9701C139.897 51.9308 139.893 51.8915 139.891 51.852C139.89 51.8335 139.889 51.8145 139.888 51.7954C139.887 51.762 139.887 51.7287 139.887 51.6954C139.887 51.6651 139.888 51.6351 139.889 51.605C139.89 51.578 139.891 51.5506 139.893 51.5233C139.896 51.4927 139.898 51.4624 139.902 51.432C139.905 51.4028 139.909 51.3734 139.913 51.3439C139.917 51.316 139.922 51.2883 139.927 51.2607C139.947 51.1473 139.976 51.0345 140.012 50.9234L140.015 50.9163C140.059 50.6438 140.137 50.3827 140.246 50.1466L140.335 49.9745L147.669 36.9995H169.522C170.834 37.0079 171.905 38.0495 171.994 39.3673L172 39.5334V62.4529C172 63.8031 170.971 64.9079 169.671 64.9941L169.507 64.9995H152.052L152.053 64.9976L152 64.9995C152.489 64.4658 152.723 63.7462 152.641 63.0269C152.566 62.3676 152.206 61.9411 151.686 61.559L151.541 61.4558L140.916 53.7276L140.779 53.621C140.778 53.6199 140.777 53.6187 140.775 53.6175L140.916 53.7276C140.847 53.6773 140.781 53.624 140.718 53.568C140.696 53.5479 140.674 53.5275 140.652 53.5068L140.623 53.4782Z" fill="url(#paint0_linear_1106_28565)"/>
<path d="M155.052 29.0981C155.743 28.9493 156.464 29.0996 157.038 29.512L163.6 34.2339C164.483 34.8697 164.853 36.003 164.516 37.037L164.526 36.999L164.527 36.9995L156.014 62.9982C156.002 63.0618 155.986 63.1286 155.967 63.1923L155.936 63.2845C155.928 63.3126 155.918 63.3402 155.907 63.3673C155.866 63.4767 155.818 63.583 155.762 63.6855L155.737 63.73C155.682 63.8299 155.62 63.9256 155.551 64.0164L155.52 64.0577C155.449 64.147 155.373 64.232 155.293 64.3123L155.264 64.3345C155.182 64.4156 155.094 64.49 155 64.5573C154.9 64.6269 154.795 64.6876 154.685 64.7386L154.653 64.7577C154.551 64.8071 154.445 64.8506 154.338 64.8882H154.291C154.182 64.924 154.07 64.9516 153.957 64.9709H153.913C153.793 64.99 153.672 64.9995 153.55 64.9995H136.527C135.135 64.9995 134.006 63.8599 134.006 62.4541V39.545C134.006 38.1392 135.135 36.9995 136.527 36.9995L149.607 36.999L153.413 30.2933C153.734 29.7368 154.255 29.3274 154.866 29.1457L155.052 29.0981Z" fill="#0073E6"/>
<path d="M164.527 36.9995L156.038 62.9901C156.029 63.0326 156.009 63.08 155.991 63.1257L155.967 63.1922L155.936 63.2845C155.928 63.3126 155.918 63.3402 155.907 63.3672L155.84 63.5289L155.762 63.6854L155.737 63.73L155.649 63.8766L155.551 64.0163L155.52 64.0577L155.41 64.1884L155.293 64.3122L155.264 64.3345C155.182 64.4155 155.094 64.49 155 64.5572L154.846 64.6549L154.685 64.7386L154.653 64.7577L154.497 64.8274L154.338 64.8881H154.291L154.125 64.9357L153.957 64.9709H153.913L153.732 64.9924L153.55 64.9995C154.386 64.4482 154.68 63.8424 154.653 63.1841C154.651 63.1317 154.647 63.0793 154.641 63.0269C154.566 62.3676 154.206 61.9411 153.686 61.559L153.541 61.4558L142.916 53.7276L142.779 53.621C142.731 53.5802 142.684 53.5379 142.639 53.4942C142.63 53.4849 142.619 53.4745 142.609 53.4641C142.578 53.4328 142.548 53.401 142.519 53.3687L142.48 53.3231C142.456 53.2956 142.434 53.2679 142.412 53.2399C142.396 53.219 142.379 53.1971 142.363 53.1749L142.336 53.1365L142.31 53.0982C142.295 53.0766 142.281 53.0543 142.267 53.0318C142.25 53.0053 142.234 52.9786 142.219 52.9517C142.208 52.9334 142.198 52.915 142.188 52.8966C142.17 52.8624 142.152 52.8277 142.135 52.7927L142.109 52.7372C142.096 52.7073 142.083 52.6766 142.07 52.6457C142.061 52.6246 142.053 52.6039 142.046 52.5831C142.032 52.5461 142.019 52.5085 142.007 52.4705C142.001 52.4544 141.997 52.4387 141.992 52.423C141.982 52.3883 141.972 52.3529 141.963 52.3174L141.947 52.2514C141.94 52.2202 141.934 52.1892 141.928 52.1582L141.916 52.0862C141.902 51.9932 141.893 51.8994 141.889 51.8052C141.886 51.7304 141.886 51.6553 141.89 51.5801C141.896 51.4629 141.909 51.3514 141.93 51.2407C141.936 51.2092 141.943 51.1776 141.95 51.146C141.956 51.1223 141.961 51.0987 141.967 51.0752L141.991 50.991C142 50.962 142.009 50.933 142.019 50.9042C142.021 50.8976 142.023 50.8913 142.025 50.885C142.061 50.6347 142.133 50.3869 142.244 50.15L142.335 49.9745L149.669 36.9995H164.527Z" fill="url(#paint1_linear_1106_28565)"/>
<defs>
<linearGradient id="paint0_linear_1106_28565" x1="155.909" y1="38.679" x2="155.909" y2="66.6692" gradientUnits="userSpaceOnUse">
<stop offset="0.0982" stop-color="#FF80FF"/>
<stop offset="0.3918" stop-color="#FF7BF9"/>
<stop offset="0.7663" stop-color="#FF6EEA"/>
<stop offset="1" stop-color="#FF62DC"/>
</linearGradient>
<linearGradient id="paint1_linear_1106_28565" x1="164.527" y1="54.9542" x2="141.887" y2="54.9542" gradientUnits="userSpaceOnUse">
<stop stop-color="#0073E6"/>
<stop offset="1" stop-color="#88E0FF"/>
</linearGradient>
</defs>
</svg>
