<svg width="315" height="97" viewBox="0 0 315 97" fill="none" xmlns="http://www.w3.org/2000/svg">
<path fill-rule="evenodd" clip-rule="evenodd" d="M117.67 48.5252C117.67 42.6464 114.823 38.0077 109.38 38.0077C103.915 38.0077 100.608 42.6464 100.608 48.4793C100.608 55.3914 104.512 58.8819 110.115 58.8819C112.848 58.8819 114.915 58.2619 116.476 57.3893V52.7965C114.915 53.5773 113.123 54.0595 110.85 54.0595C108.622 54.0595 106.648 53.2787 106.395 50.569H117.624C117.624 50.2704 117.67 49.0763 117.67 48.5252ZM106.326 46.3436C106.326 43.7487 107.911 42.6694 109.357 42.6694C110.758 42.6694 112.251 43.7487 112.251 46.3436H106.326Z" fill="#0A2540"/>
<path fill-rule="evenodd" clip-rule="evenodd" d="M91.744 38.0077C89.4935 38.0077 88.0468 39.064 87.2431 39.7989L86.9445 38.3751H81.8925V65.1511L87.6334 63.934L87.6564 57.4352C88.4831 58.0323 89.7002 58.8819 91.721 58.8819C95.8316 58.8819 99.5747 55.5751 99.5747 48.2955C99.5517 41.636 95.7627 38.0077 91.744 38.0077ZM90.3662 53.8299C89.0113 53.8299 88.2075 53.3476 87.6564 52.7506L87.6334 44.2309C88.2305 43.565 89.0572 43.1057 90.3662 43.1057C92.4559 43.1057 93.9026 45.448 93.9026 48.4563C93.9026 51.5335 92.4788 53.8299 90.3662 53.8299Z" fill="#0A2540"/>
<path fill-rule="evenodd" clip-rule="evenodd" d="M73.9928 36.6528L79.7567 35.4128V30.7511L73.9928 31.9682V36.6528Z" fill="#0A2540"/>
<path d="M79.7567 38.3981H73.9928V58.4915H79.7567V38.3981Z" fill="#0A2540"/>
<path fill-rule="evenodd" clip-rule="evenodd" d="M67.8156 40.0975L67.4481 38.3981H62.4879V58.4916H68.2289V44.874C69.5838 43.1057 71.8802 43.4272 72.5921 43.6798V38.3981C71.8572 38.1226 69.1704 37.6174 67.8156 40.0975Z" fill="#0A2540"/>
<path fill-rule="evenodd" clip-rule="evenodd" d="M56.3336 33.4149L50.7304 34.609L50.7074 53.0032C50.7074 56.4018 53.2564 58.9049 56.6551 58.9049C58.5381 58.9049 59.9159 58.5605 60.6738 58.1471V53.4854C59.9389 53.784 56.3106 54.8403 56.3106 51.4416V43.2894H60.6738V38.3981H56.3106L56.3336 33.4149Z" fill="#0A2540"/>
<path fill-rule="evenodd" clip-rule="evenodd" d="M40.8099 44.2309C40.8099 43.3353 41.5447 42.9909 42.7618 42.9909C44.5071 42.9909 46.7116 43.519 48.4569 44.4606V39.064C46.5509 38.3062 44.6678 38.0077 42.7618 38.0077C38.1001 38.0077 35 40.4419 35 44.5065C35 50.8445 43.7263 49.8341 43.7263 52.5668C43.7263 53.6232 42.8077 53.9676 41.5218 53.9676C39.6158 53.9676 37.1816 53.1869 35.2526 52.1305V57.5959C37.3883 58.5145 39.5469 58.9049 41.5218 58.9049C46.2983 58.9049 49.5821 56.5396 49.5821 52.4291C49.5592 45.5858 40.8099 46.8029 40.8099 44.2309Z" fill="#0A2540"/>
<path d="M140.623 53.4787L140.595 53.4504C140.567 53.4216 140.539 53.3922 140.513 53.3622C140.496 53.3436 140.48 53.325 140.465 53.3062C140.442 53.2784 140.419 53.2502 140.397 53.2216C140.383 53.2021 140.368 53.1821 140.353 53.1619C140.335 53.1367 140.318 53.1114 140.301 53.0859C140.282 53.0577 140.264 53.0293 140.247 53.0006C140.237 52.9845 140.228 52.9679 140.218 52.9512C140.2 52.9201 140.183 52.889 140.167 52.8576C140.153 52.8305 140.139 52.803 140.126 52.7752C140.091 52.7 140.059 52.6233 140.031 52.5454C139.991 52.4316 139.961 52.3213 139.938 52.2094C139.933 52.1857 139.928 52.1614 139.924 52.137C139.918 52.1035 139.913 52.0701 139.909 52.0367C139.906 52.0146 139.903 51.9926 139.901 51.9706C139.896 51.9313 139.893 51.892 139.891 51.8525C139.89 51.834 139.889 51.815 139.888 51.7959C139.887 51.7625 139.886 51.7292 139.886 51.6958C139.887 51.6656 139.887 51.6356 139.888 51.6055C139.89 51.5785 139.891 51.5511 139.893 51.5238C139.895 51.4932 139.898 51.4628 139.901 51.4325C139.905 51.4033 139.908 51.3738 139.913 51.3444C139.917 51.3165 139.921 51.2888 139.926 51.2611C139.947 51.1478 139.975 51.035 140.012 50.9239L140.014 50.9168C140.059 50.6443 140.136 50.3832 140.246 50.1471L140.335 49.975L147.669 37H169.522C170.834 37.0084 171.904 38.05 171.994 39.3678L172 39.5339V62.4534C172 63.8036 170.971 64.9084 169.67 64.9946L169.506 65H152.051L152.053 64.9981L152 65C152.489 64.4663 152.723 63.7467 152.641 63.0274C152.565 62.3681 152.205 61.9416 151.686 61.5595L151.541 61.4562L140.916 53.7281L140.779 53.6215C140.778 53.6203 140.776 53.6192 140.775 53.618L140.916 53.7281C140.846 53.6778 140.781 53.6244 140.718 53.5685C140.696 53.5484 140.674 53.528 140.652 53.5073L140.623 53.4787Z" fill="url(#paint0_linear_1106_28922)"/>
<path d="M155.052 29.0986C155.742 28.9497 156.464 29.1001 157.038 29.5125L163.6 34.2344C164.482 34.8701 164.853 36.0035 164.516 37.0375L164.526 36.9995L164.527 37L156.014 62.9987C156.002 63.0623 155.986 63.1291 155.967 63.1928L155.935 63.285C155.927 63.3131 155.918 63.3407 155.907 63.3678C155.866 63.4771 155.818 63.5835 155.762 63.6859L155.737 63.7305C155.682 63.8304 155.62 63.9261 155.551 64.0168L155.519 64.0582C155.449 64.1475 155.373 64.2325 155.293 64.3128L155.264 64.335C155.182 64.4161 155.093 64.4905 154.999 64.5578C154.9 64.6274 154.794 64.6881 154.684 64.7391L154.653 64.7582C154.55 64.8076 154.445 64.8511 154.338 64.8887H154.29C154.181 64.9244 154.07 64.9521 153.956 64.9714H153.912C153.793 64.9905 153.671 65 153.55 65H136.527C135.134 65 134.006 63.8604 134.006 62.4546V39.5455C134.006 38.1397 135.134 37 136.527 37L149.607 36.9995L153.413 30.2938C153.733 29.7373 154.255 29.3279 154.866 29.1462L155.052 29.0986Z" fill="#0073E6"/>
<path d="M164.383 37L156.014 62.9986L155.993 63.0957L155.967 63.1927L155.935 63.285C155.927 63.313 155.918 63.3407 155.907 63.3677L155.84 63.5294L155.762 63.6859L155.737 63.7305L155.649 63.8771L155.551 64.0168L155.519 64.0582L155.41 64.1888L155.293 64.3127L155.264 64.335C155.182 64.416 155.093 64.4905 155 64.5577L154.846 64.6554L154.684 64.7391L154.653 64.7582L154.497 64.8278L154.338 64.8886H154.291L154.125 64.9362L154.038 64.954L154.127 64.85C154.529 64.3354 154.715 63.6813 154.641 63.0274C154.565 62.3681 154.205 61.9416 153.686 61.5595L153.541 61.4562L142.916 53.7281L142.779 53.6215C142.731 53.5807 142.684 53.5384 142.639 53.4947C142.629 53.4854 142.619 53.475 142.609 53.4646C142.578 53.4332 142.548 53.4015 142.519 53.3692L142.479 53.3236C142.456 53.2961 142.434 53.2684 142.412 53.2404C142.396 53.2195 142.379 53.1976 142.363 53.1754L142.336 53.137L142.31 53.0987C142.295 53.0771 142.281 53.0548 142.267 53.0323C142.25 53.0058 142.234 52.9791 142.219 52.9522C142.208 52.9339 142.198 52.9155 142.188 52.8971C142.169 52.8629 142.152 52.8282 142.135 52.7931L142.109 52.7377C142.095 52.7078 142.082 52.6771 142.07 52.6462C142.061 52.6251 142.053 52.6044 142.045 52.5836C142.032 52.5466 142.018 52.5089 142.006 52.471C142.001 52.4549 141.996 52.4392 141.992 52.4235C141.981 52.3888 141.971 52.3534 141.963 52.3179L141.947 52.2519C141.94 52.2207 141.934 52.1897 141.928 52.1587L141.916 52.0867C141.901 51.9937 141.892 51.8999 141.889 51.8057C141.885 51.7309 141.886 51.6558 141.89 51.5806C141.896 51.4634 141.909 51.3519 141.93 51.2412C141.936 51.2097 141.943 51.1781 141.95 51.1465C141.955 51.1228 141.961 51.0992 141.967 51.0757L141.991 50.9915C141.999 50.9625 142.009 50.9335 142.018 50.9046C142.021 50.8981 142.023 50.8918 142.025 50.8855C142.061 50.6351 142.133 50.3874 142.244 50.1505L142.335 49.975L149.669 37H164.383Z" fill="url(#paint1_linear_1106_28922)"/>
<path d="M191.88 38.896V59H187.764V38.896H191.88ZM194.097 56.508L196.533 54.016C197.541 55.388 199.333 56.256 200.985 56.256C202.301 56.256 203.449 55.808 203.449 54.744C203.449 53.624 202.357 53.484 200.005 53.036C197.625 52.56 194.993 51.944 194.993 48.78C194.993 45.952 197.485 43.992 201.013 43.992C203.617 43.992 205.941 45.056 207.089 46.54L204.849 49.004C203.869 47.744 202.441 47.044 200.901 47.044C199.669 47.044 198.857 47.576 198.857 48.388C198.857 49.34 199.837 49.508 201.657 49.872C204.233 50.404 207.285 50.992 207.285 54.324C207.285 57.404 204.429 59.308 200.901 59.308C198.241 59.308 195.441 58.328 194.097 56.508ZM208.424 56.508L210.86 54.016C211.868 55.388 213.66 56.256 215.312 56.256C216.628 56.256 217.776 55.808 217.776 54.744C217.776 53.624 216.684 53.484 214.332 53.036C211.952 52.56 209.32 51.944 209.32 48.78C209.32 45.952 211.812 43.992 215.34 43.992C217.944 43.992 220.268 45.056 221.416 46.54L219.176 49.004C218.196 47.744 216.768 47.044 215.228 47.044C213.996 47.044 213.184 47.576 213.184 48.388C213.184 49.34 214.164 49.508 215.984 49.872C218.56 50.404 221.612 50.992 221.612 54.324C221.612 57.404 218.756 59.308 215.228 59.308C212.568 59.308 209.768 58.328 208.424 56.508ZM236.976 44.272V59H233.056V57.488C232.244 58.44 230.956 59.308 229.08 59.308C226.028 59.308 224.068 57.208 224.068 54.016V44.272H227.988V53.148C227.988 54.772 228.716 55.836 230.34 55.836C231.712 55.836 233.056 54.828 233.056 52.924V44.272H236.976ZM240.475 42.536V38.896H244.479V42.536H240.475ZM244.451 44.272V59H240.531V44.272H244.451ZM247.968 59V44.272H251.888V45.784C252.7 44.832 254.044 43.992 255.92 43.992C259 43.992 260.876 46.092 260.876 49.284V59H256.956V50.404C256.956 48.752 256.284 47.576 254.604 47.576C253.232 47.576 251.888 48.556 251.888 50.488V59H247.968ZM277.899 57.376C277.899 61.828 274.819 64.292 270.451 64.292C266.895 64.292 264.431 62.836 263.591 59.952L267.259 58.888C267.679 60.344 268.827 61.24 270.507 61.24C272.551 61.24 273.979 60.232 273.979 57.796V56.788C273.223 57.796 271.739 58.58 269.891 58.58C265.859 58.58 263.507 55.304 263.507 51.272C263.507 47.268 265.859 43.992 269.891 43.992C271.711 43.992 273.223 44.776 273.979 45.784V44.272H277.899V57.376ZM274.007 51.104C274.007 48.668 272.691 47.296 270.815 47.296C268.687 47.296 267.483 48.808 267.483 51.272C267.483 53.736 268.687 55.276 270.815 55.276C272.691 55.276 274.007 53.904 274.007 51.496V51.104Z" fill="#0073E6"/>
<defs>
<linearGradient id="paint0_linear_1106_28922" x1="155.923" y1="38.6808" x2="155.923" y2="66.6839" gradientUnits="userSpaceOnUse">
<stop offset="0.1" stop-color="#FF80FF"/>
<stop offset="0.39" stop-color="#FF7BF9"/>
<stop offset="0.77" stop-color="#FF6EEA"/>
<stop offset="1" stop-color="#FF62DC"/>
</linearGradient>
<linearGradient id="paint1_linear_1106_28922" x1="164.383" y1="54.9252" x2="144.62" y2="54.9252" gradientUnits="userSpaceOnUse">
<stop stop-color="#0073E6"/>
<stop offset="1" stop-color="#00299C"/>
</linearGradient>
</defs>
</svg>
